<svg id="Layer_5" enable-background="new 0 0 64 64" height="512" viewBox="0 0 64 64" width="512" xmlns="http://www.w3.org/2000/svg"><g><g><path d="m47 50h12v8h-12z" fill="#f0bc5e"/></g><g><path d="m47 28h12v9h-12z" fill="#f0bc5e"/></g><g><path d="m47 6h12v8h-12z" fill="#f0bc5e"/></g><g><g><path d="m19 37c-9.925 0-18-8.075-18-18s8.075-18 18-18 18 8.075 18 18-8.075 18-18 18zm0-31c-7.168 0-13 5.832-13 13s5.832 13 13 13 13-5.832 13-13-5.832-13-13-13z" fill="#f0bc5e"/></g></g><g><path d="m19 53c-1.654 0-3 1.346-3 3s1.346 3 3 3 3-1.346 3-3-1.346-3-3-3zm0 4c-.552 0-1-.448-1-1s.448-1 1-1 1 .448 1 1-.448 1-1 1z"/><path d="m23.001 39.904c.017-1.095.32-2.169.881-3.111l.34-.571c-.827.251-1.684.428-2.557.559-.298.71-.504 1.455-.597 2.22h-4.135c-.093-.765-.299-1.51-.597-2.22-.872-.13-1.73-.307-2.557-.559l.34.57c.561.943.864 2.018.881 3.112l-2.863 14.317c-.091.453-.137.914-.137 1.373v.406c0 3.859 3.141 7 7 7s7-3.141 7-7v-.406c0-.459-.046-.92-.136-1.373zm.999 16.096c0 2.757-2.243 5-5 5s-5-2.243-5-5v-.406c0-.328.032-.658.097-.98l2.723-13.614h4.379l2.705 13.612c.064.324.096.654.096.982z"/><path d="m22 19c0-1.654-1.346-3-3-3s-3 1.346-3 3 1.346 3 3 3 3-1.346 3-3zm-4 0c0-.551.448-1 1-1s1 .449 1 1-.448 1-1 1-1-.449-1-1z"/><path d="m11 16c-1.654 0-3 1.346-3 3s1.346 3 3 3 3-1.346 3-3-1.346-3-3-3zm0 4c-.552 0-1-.449-1-1s.448-1 1-1 1 .449 1 1-.448 1-1 1z"/><path d="m27 22c1.654 0 3-1.346 3-3s-1.346-3-3-3-3 1.346-3 3 1.346 3 3 3zm0-4c.552 0 1 .449 1 1s-.448 1-1 1-1-.449-1-1 .448-1 1-1z"/><path d="m60 45h-14c-1.654 0-3 1.346-3 3v5h-3.462l-11.976-18.171c-.591.321-1.206.599-1.833.853l12.733 19.318h4.538v5c0 1.654 1.346 3 3 3h14c1.654 0 3-1.346 3-3v-12c0-1.654-1.346-3-3-3zm1 15c0 .552-.448 1-1 1h-14c-.552 0-1-.448-1-1v-12c0-.552.448-1 1-1h14c.552 0 1 .448 1 1z"/><path d="m47 49h12v2h-12z"/><path d="m47 53h8v2h-8z"/><path d="m57 53h2v2h-2z"/><path d="m47 57h12v2h-12z"/><path d="m60 23h-14c-1.654 0-3 1.346-3 3v5h-4.586l-3.537-3.537c-.325.607-.685 1.19-1.075 1.753l3.784 3.784h5.414v5c0 1.654 1.346 3 3 3h14c1.654 0 3-1.346 3-3v-12c0-1.654-1.346-3-3-3zm1 15c0 .552-.448 1-1 1h-14c-.552 0-1-.448-1-1v-12c0-.551.448-1 1-1h14c.552 0 1 .449 1 1z"/><path d="m47 27h12v2h-12z"/><path d="m47 31h12v2h-12z"/><path d="m57 35h2v2h-2z"/><path d="m47 35h8v2h-8z"/><path d="m60 1h-14c-1.654 0-3 1.346-3 3v5h-4.414l-3.002 3.002c.288.679.519 1.387.723 2.105l3.107-3.107h3.586v5c0 1.654 1.346 3 3 3h14c1.654 0 3-1.346 3-3v-12c0-1.654-1.346-3-3-3zm1 15c0 .551-.448 1-1 1h-14c-.552 0-1-.449-1-1v-12c0-.551.448-1 1-1h14c.552 0 1 .449 1 1z"/><path d="m47 5h12v2h-12z"/><path d="m47 9h2v2h-2z"/><path d="m51 9h8v2h-8z"/><path d="m47 13h12v2h-12z"/><path d="m33 19c0-7.72-6.28-14-14-14s-14 6.28-14 14 6.28 14 14 14 14-6.28 14-14zm-26 0c0-6.617 5.383-12 12-12s12 5.383 12 12-5.383 12-12 12-12-5.383-12-12z"/></g></g></svg>